<svg width="104" height="41" viewBox="0 0 104 41" fill="none" xmlns="http://www.w3.org/2000/svg">
<rect width="104" height="41" fill="#E5E5E5"/>
<g clip-path="url(#clip0_4_15)">
<rect width="375" height="2717" transform="translate(-74 -2570)" fill="#FBFBFB"/>
<rect x="-74" y="-179" width="375" height="325" fill="#262625"/>
<rect opacity="0.258185" width="104" height="40.1421" rx="20.071" transform="matrix(-1 0 0 1 104 0.480469)" fill="white"/>
<path fill-rule="evenodd" clip-rule="evenodd" d="M60.4188 25.7661C59.3584 25.7661 58.5824 25.2511 58.4931 24.4667L57.259 24.4666C57.337 25.8973 58.5431 26.8024 60.3295 26.8024C62.2388 26.8024 63.4386 25.8755 63.4386 24.3957C63.4386 23.2388 62.7526 22.5869 61.0998 22.2031L60.2123 21.9891C59.1741 21.7372 58.7496 21.4081 58.7496 20.8489C58.7496 20.1473 59.4141 19.6652 60.3853 19.6652C61.3564 19.6652 62.0209 20.1417 62.0937 20.931H63.3107C63.2714 19.5663 62.1045 18.6289 60.4017 18.6289C58.6825 18.6289 57.4713 19.5663 57.4713 20.931C57.4713 22.0333 58.158 22.7125 59.6371 23.0634L60.6811 23.3103C61.7251 23.5622 62.166 23.9298 62.166 24.5438C62.166 25.251 61.4349 25.7661 60.4188 25.7661ZM39.4169 24.5299H36.3465L35.6091 26.6678H34.3086L37.2169 18.7581H38.5681L41.4764 26.6678H40.1537L39.4169 24.5299ZM36.6636 23.5439H39.0964L37.8971 20.0742H37.8635L36.6636 23.5439ZM45.3063 26.7323C46.7804 26.7323 47.7573 25.581 47.7573 23.7889C47.7573 22.0018 46.7747 20.8448 45.2841 20.8448C44.5172 20.8205 43.7987 21.2122 43.4141 21.8643H43.392V20.9052H42.2251V28.5798H43.4306V25.7234H43.4585C43.8267 26.3796 44.5444 26.7715 45.3063 26.7323ZM46.5179 23.7862C46.5179 22.6187 45.9034 21.8511 44.9659 21.8511C44.0448 21.8511 43.4253 22.6348 43.4253 23.7862C43.4253 24.9482 44.0448 25.7263 44.9659 25.7263C45.9035 25.7263 46.5179 24.9643 46.5179 23.7862H46.5179ZM51.7707 26.7323C53.2448 26.7323 54.2219 25.581 54.2219 23.7889C54.2219 22.0018 53.2391 20.8448 51.7485 20.8448C50.9815 20.8205 50.263 21.2122 49.8785 21.8643H49.8563V20.9052H48.6895V28.5798H49.895V25.7234H49.9229C50.291 26.3796 51.0087 26.7715 51.7707 26.7323ZM52.9823 23.7862C52.9823 22.6187 52.3678 21.8511 51.4303 21.8511C50.5092 21.8511 49.8896 22.6348 49.8896 23.7862C49.8896 24.9482 50.5092 25.7263 51.4303 25.7263C52.3678 25.7263 52.9823 24.9643 52.9823 23.7862ZM66.0417 19.5383V20.9031H67.1585V21.8405H66.0417V25.0197C66.0417 25.5135 66.2653 25.7437 66.7562 25.7437C66.8888 25.7414 67.0212 25.7323 67.1528 25.7163V26.6481C66.9321 26.6886 66.7077 26.7069 66.4832 26.7029C65.2942 26.7029 64.8305 26.2643 64.8305 25.1459V21.8405H63.9766V20.9031H64.8305V19.5383H66.0417ZM70.5896 20.8318C68.8925 20.8318 67.8042 21.972 67.8042 23.7864C67.8042 25.6059 68.8817 26.7411 70.5896 26.7411C72.2981 26.7411 73.3756 25.6059 73.3756 23.7864C73.3756 21.9719 72.2924 20.8318 70.5896 20.8318ZM72.1477 23.7874C72.1477 22.5427 71.5668 21.8081 70.5899 21.8081C69.6131 21.8081 69.0322 22.5483 69.0322 23.7874C69.0322 25.0371 69.6131 25.7661 70.5899 25.7661C71.5668 25.7661 72.1477 25.0371 72.1477 23.7874ZM75.5194 20.9051H74.3696L74.3696 26.6719H75.5751V23.2514C75.535 22.9053 75.6509 22.5594 75.8924 22.3043C76.1339 22.0492 76.4769 21.9105 76.8313 21.9246C77.0146 21.9194 77.1976 21.9435 77.373 21.9961V20.8889C77.2374 20.8591 77.0989 20.8443 76.9599 20.8448C76.2972 20.8199 75.7076 21.2548 75.5473 21.8867H75.5194V20.9051ZM82.9311 24.9757C82.7689 26.0226 81.7306 26.7411 80.4022 26.7411C78.6937 26.7411 77.6333 25.6171 77.6333 23.8138C77.6333 22.0049 78.6994 20.8318 80.3515 20.8318C81.9764 20.8318 82.9982 21.9278 82.9982 23.6763V24.0819H78.8502V24.1534C78.8115 24.5828 78.9625 25.0077 79.2647 25.3203C79.567 25.6328 79.9915 25.8027 80.4301 25.7869C81.0151 25.8407 81.5667 25.5108 81.7864 24.9757L82.9311 24.9757ZM81.7921 23.2523H78.856C78.8549 22.8629 79.0124 22.4893 79.2932 22.2145C79.5741 21.9396 79.9551 21.7863 80.3516 21.7887C80.745 21.7804 81.1241 21.9336 81.3975 22.2114C81.671 22.4892 81.814 22.8665 81.7921 23.2523Z" fill="white"/>
<path fill-rule="evenodd" clip-rule="evenodd" d="M50.3112 12.6211H50.8874V16.6089H50.3112V12.6211ZM37.8811 13.3307C37.5283 12.9649 37.027 12.7737 36.5153 12.8097H35.1172V16.6104H36.5153C37.6682 16.6104 38.3365 15.9124 38.3365 14.6982C38.401 14.1984 38.2339 13.6965 37.8811 13.3307ZM36.4477 16.0712H35.7183V13.3451H36.4477C36.8114 13.3253 37.165 13.4661 37.4119 13.7291C37.6588 13.9922 37.7732 14.3498 37.7237 14.7042C37.7771 15.0602 37.6644 15.4208 37.4168 15.686C37.1693 15.9511 36.8133 16.0926 36.4477 16.0712ZM39.0153 15.1725C38.9652 14.6584 39.2163 14.1609 39.6632 13.8886C40.1101 13.6162 40.6756 13.6162 41.1225 13.8886C41.5693 14.1609 41.8204 14.6584 41.7703 15.1725C41.8213 15.6872 41.5705 16.1857 41.1232 16.4585C40.6759 16.7314 40.1097 16.7314 39.6624 16.4585C39.2151 16.1857 38.9643 15.6872 39.0153 15.1725ZM40.394 14.1875C40.8929 14.1875 41.1773 14.5511 41.1773 15.1728H41.1773C41.1773 15.797 40.893 16.1603 40.394 16.1603C39.8931 16.1603 39.6113 15.7995 39.6113 15.1728C39.6113 14.5511 39.8931 14.1875 40.394 14.1875ZM45.4329 16.6113H44.8349L44.2312 14.4989H44.1856L43.5845 16.6113H42.9922L42.187 13.7432H42.7717L43.295 15.9318H43.338L43.9386 13.7432H44.4916L45.0921 15.9318H45.1377L45.6585 13.7432H46.2349L45.4329 16.6113ZM47.4668 13.7425H46.9121L46.9121 16.6107H47.4883V14.9328C47.4677 14.7419 47.5329 14.5517 47.6669 14.412C47.8009 14.2723 47.9903 14.197 48.1855 14.2059C48.6117 14.2059 48.8156 14.4352 48.8156 14.8961V16.6107H49.3918V14.7539C49.4341 14.4735 49.3442 14.1894 49.1476 13.9819C48.951 13.7744 48.669 13.6659 48.3812 13.6872C48.0095 13.6575 47.6596 13.8627 47.5099 14.1982H47.4668V13.7425ZM52.3366 13.8886C51.8897 14.1609 51.6386 14.6584 51.6887 15.1726C51.6377 15.6872 51.8885 16.1857 52.3359 16.4586C52.7832 16.7315 53.3494 16.7315 53.7967 16.4586C54.2441 16.1857 54.4949 15.6872 54.444 15.1726C54.494 14.6584 54.2429 14.1609 53.796 13.8886C53.3491 13.6162 52.7835 13.6162 52.3366 13.8886ZM53.8501 15.1728C53.8501 14.5511 53.5658 14.1875 53.0668 14.1875C52.5659 14.1875 52.2842 14.5511 52.2842 15.1728C52.2842 15.7995 52.566 16.1603 53.0668 16.1603C53.5658 16.1603 53.8501 15.797 53.8501 15.1728ZM56.1368 14.9405C55.4421 14.9828 55.0508 15.2804 55.0508 15.7967C55.0518 16.0415 55.1581 16.2745 55.3435 16.438C55.529 16.6016 55.7762 16.6804 56.024 16.6551C56.3776 16.6712 56.7127 16.4991 56.9011 16.2048H56.9467V16.6079H57.5014V14.6482C57.5014 14.0423 57.0885 13.6843 56.3565 13.6843C55.6941 13.6843 55.2224 14.0003 55.1635 14.493H55.7214C55.7853 14.2902 56.0082 14.1742 56.3299 14.1742C56.7238 14.1742 56.9277 14.3452 56.9277 14.6482V14.8957L56.1368 14.9405ZM56.9283 15.5562V15.3164L56.2153 15.3612C55.8132 15.3876 55.6309 15.522 55.6309 15.7748C55.6309 16.033 55.8588 16.1832 56.1723 16.1832C56.3579 16.2017 56.5431 16.1453 56.6856 16.0271C56.8281 15.9089 56.9157 15.739 56.9283 15.5562ZM59.4726 13.6932C58.7346 13.6932 58.2602 14.2673 58.2602 15.1736C58.2602 16.0821 58.7296 16.6562 59.4726 16.6562C59.8494 16.6698 60.2027 16.4771 60.3899 16.1558H60.4355V16.6089H60.9879V12.6211H60.4114V14.1964H60.3684C60.1943 13.8724 59.8453 13.6763 59.4726 13.6932ZM58.8555 15.175C58.8555 15.7834 59.1474 16.1495 59.6356 16.1495C60.1213 16.1495 60.4215 15.7781 60.4215 15.1775C60.4215 14.5798 60.1181 14.2031 59.6356 14.2031C59.1506 14.2031 58.8555 14.5717 58.8555 15.175H58.8555ZM64.0211 13.8886C63.5742 14.1609 63.3232 14.6584 63.3732 15.1725C63.3222 15.6872 63.573 16.1857 64.0203 16.4585C64.4676 16.7314 65.0339 16.7314 65.4811 16.4585C65.9284 16.1857 66.1793 15.6872 66.1282 15.1725C66.1783 14.6584 65.9273 14.1609 65.4804 13.8886C65.0335 13.6162 64.468 13.6162 64.0211 13.8886ZM65.5342 15.1728C65.5342 14.5511 65.2499 14.1875 64.7509 14.1875C64.25 14.1875 63.9683 14.5511 63.9683 15.1728C63.9683 15.7995 64.25 16.1603 64.7509 16.1603C65.2499 16.1603 65.5342 15.797 65.5342 15.1728ZM67.4561 13.7425H66.9014V16.6107H67.4776V14.9328C67.4569 14.7419 67.5221 14.5517 67.6561 14.412C67.7901 14.2723 67.9796 14.197 68.1748 14.2059C68.6009 14.2059 68.8048 14.4352 68.8048 14.8961V16.6107H69.3811V14.7539C69.4233 14.4735 69.3334 14.1894 69.1368 13.9819C68.9402 13.7744 68.6582 13.6659 68.3704 13.6872C67.9988 13.6575 67.6489 13.8627 67.4991 14.1982H67.4561V13.7425ZM72.639 13.0312V13.7584H73.2716V14.2352H72.639V15.71C72.639 16.0105 72.765 16.142 73.0519 16.142C73.1253 16.1418 73.1987 16.1374 73.2716 16.129V16.6005C73.1681 16.6186 73.0633 16.6283 72.9582 16.6294C72.3173 16.6294 72.0621 16.4079 72.0621 15.855V14.2352H71.5986V13.7584H72.0621V13.0312H72.639ZM74.6313 12.6211H74.0599L74.0599 16.6089H74.6364V14.9338C74.6186 14.737 74.6901 14.5425 74.8319 14.4023C74.9737 14.2621 75.1713 14.1905 75.3719 14.2066C75.7792 14.2066 75.9965 14.4387 75.9965 14.8968V16.6089H76.5735V14.7571C76.6117 14.4781 76.5212 14.197 76.3266 13.9902C76.1321 13.7834 75.8538 13.6726 75.5675 13.6879C75.1901 13.6578 74.8339 13.8633 74.6769 14.2017H74.6313V12.6211ZM79.9346 15.8335C79.7729 16.3745 79.2397 16.7241 78.6689 16.6633C78.2794 16.6734 77.9051 16.5148 77.6452 16.2298C77.3854 15.9447 77.2663 15.5618 77.3196 15.1828C77.2677 14.8028 77.3864 14.4194 77.6448 14.1319C77.9032 13.8444 78.2759 13.6811 78.6664 13.6844C79.4791 13.6844 79.9694 14.2296 79.9694 15.1303V15.3278H77.9068V15.3595C77.8886 15.5723 77.9626 15.7829 78.1107 15.9393C78.2588 16.0957 78.4672 16.1836 78.6847 16.1812C78.9668 16.2144 79.2413 16.0771 79.3797 15.8335L79.9346 15.8335ZM79.3816 14.9112H77.9068C77.9042 14.7134 77.983 14.5229 78.1253 14.3831C78.2677 14.2432 78.4615 14.1657 78.6629 14.1682C78.8615 14.1637 79.0528 14.2418 79.1897 14.3833C79.3266 14.5248 79.3963 14.7165 79.3816 14.9112Z" fill="white"/>
<path fill-rule="evenodd" clip-rule="evenodd" d="M26.4195 11.5195C26.4961 12.486 26.18 13.4433 25.5384 14.1881C24.916 14.9368 23.9729 15.368 22.9797 15.3581C22.9165 14.4194 23.2418 13.4949 23.8838 12.7883C24.534 12.0721 25.4394 11.6191 26.4195 11.5195ZM29.5607 17.2018C28.4182 17.8811 27.7151 19.0791 27.6978 20.3761C27.6994 21.8434 28.6081 23.1677 30.0056 23.7393C29.7368 24.5836 29.3317 25.3815 28.8052 26.1035C28.0981 27.1263 27.3568 28.1256 26.1802 28.1441C25.6206 28.1566 25.2429 28.0009 24.8493 27.8388C24.4387 27.6696 24.0109 27.4934 23.3414 27.4934C22.6314 27.4934 22.1844 27.6753 21.7533 27.8508C21.3807 28.0024 21.0201 28.1492 20.5117 28.1696C19.3912 28.2097 18.5348 27.0779 17.8021 26.0647C16.3375 23.9955 15.1971 20.2333 16.726 17.6734C17.4439 16.4258 18.7863 15.6341 20.262 15.588C20.8975 15.5753 21.5074 15.8122 22.042 16.0199C22.4509 16.1787 22.8158 16.3205 23.1147 16.3205C23.3773 16.3205 23.7321 16.1843 24.1455 16.0256C24.7967 15.7757 25.5936 15.4699 26.4056 15.5523C27.6674 15.5905 28.8367 16.2018 29.5607 17.2018Z" fill="white"/>
</g>
<defs>
<clipPath id="clip0_4_15">
<rect width="375" height="2717" fill="white" transform="translate(-74 -2570)"/>
</clipPath>
</defs>
</svg>
