<svg width="104" height="41" viewBox="0 0 104 41" fill="none" xmlns="http://www.w3.org/2000/svg">
<rect width="104" height="41" fill="#E5E5E5"/>
<g clip-path="url(#clip0_4_15)">
<rect width="375" height="2717" transform="translate(-197 -2570)" fill="#FBFBFB"/>
<rect x="-197" y="-179" width="375" height="325" fill="#262625"/>
<rect opacity="0.258185" width="104" height="40.1421" rx="20.071" transform="matrix(-1 0 0 1 104 0.480469)" fill="white"/>
<path fill-rule="evenodd" clip-rule="evenodd" d="M38.7784 22.3051V23.5027H41.6124C41.5679 24.0668 41.3367 24.5991 40.9564 25.0131C40.383 25.6055 39.5896 25.9245 38.7718 25.8914C37.0327 25.8914 35.6229 24.4615 35.6229 22.6976C35.6229 20.9337 37.0327 19.5038 38.7718 19.5038C39.5707 19.4906 40.3422 19.7993 40.917 20.3622L41.7501 19.5171C40.9661 18.7119 39.8941 18.2631 38.7784 18.2729C37.1901 18.2102 35.6953 19.0338 34.8828 20.4194C34.0703 21.805 34.0703 23.5304 34.8828 24.916C35.6953 26.3015 37.1901 27.1252 38.7784 27.0625C39.9144 27.1146 41.0172 26.6657 41.8026 25.8315C42.4899 25.0656 42.8569 24.0588 42.826 23.0237C42.8281 22.7715 42.8062 22.5197 42.7604 22.2718L38.7784 22.3051ZM46.054 21.4336C44.515 21.4373 43.2701 22.705 43.2725 24.2659C43.2749 25.8268 44.5238 27.0905 46.0627 27.0893C47.6017 27.0881 48.8486 25.8224 48.8486 24.2615C48.8594 23.5059 48.5674 22.7782 48.0393 22.245C47.5112 21.7119 46.7924 21.4191 46.0474 21.4336H46.054ZM49.3867 24.2703C49.3819 22.7103 50.6236 21.441 52.1617 21.4336C52.9066 21.4191 53.6255 21.7119 54.1535 22.245C54.6816 22.7782 54.9737 23.5059 54.9629 24.2615C54.9629 25.8215 53.7173 27.0868 52.1792 27.0893C50.6411 27.0917 49.3916 25.8303 49.3867 24.2703ZM50.5159 25.007C50.8155 25.643 51.468 26.0287 52.1612 25.9795C52.5964 25.9693 53.009 25.7812 53.3054 25.458C53.6019 25.1347 53.757 24.7038 53.7357 24.2628C53.734 23.558 53.3077 22.9258 52.6606 22.6687C52.0135 22.4115 51.2772 22.5817 50.8039 23.0978C50.3306 23.6139 50.2164 24.371 50.5159 25.007ZM44.4039 25.0116C44.7056 25.6473 45.3599 26.031 46.0535 25.979H46.047C46.4821 25.9688 46.8947 25.7807 47.1912 25.4575C47.4876 25.1343 47.6428 24.7033 47.6214 24.2624C47.6195 23.5569 47.1924 22.9245 46.5445 22.6679C45.8966 22.4114 45.1599 22.5829 44.6872 23.1004C44.2146 23.6179 44.1022 24.376 44.4039 25.0116ZM66.1146 21.4331C67.2022 21.4737 68.1522 22.1911 68.5025 23.2363L68.6403 23.5357L64.9075 25.0993C65.1415 25.6398 65.6774 25.9801 66.2589 25.9577C66.8204 25.9591 67.3412 25.6609 67.63 25.1725L68.5812 25.8379C68.0634 26.624 67.191 27.0939 66.2589 27.0888C65.518 27.0998 64.8045 26.8048 64.2823 26.2714C63.7602 25.7381 63.4744 25.0124 63.4905 24.261C63.4452 23.5267 63.7015 22.8062 64.1986 22.2705C64.6957 21.7348 65.3892 21.4317 66.1146 21.4331ZM64.6976 24.1833C64.6707 23.7675 64.81 23.3583 65.084 23.0479C65.358 22.7374 65.7436 22.5519 66.154 22.5331C66.5865 22.5042 66.9944 22.7399 67.1905 23.132L64.6976 24.1833ZM62.8938 26.9227H61.667V18.6055H62.8938V26.9227ZM59.66 22.067H59.6141C59.2402 21.6429 58.7056 21.4009 58.1446 21.4016C56.6556 21.4749 55.4854 22.7207 55.4854 24.2328C55.4854 25.7449 56.6556 26.9907 58.1446 27.064C58.7074 27.0736 59.2455 26.8299 59.6141 26.3986H59.6535V26.8045C59.6535 27.889 59.0827 28.4679 58.1643 28.4679C57.5387 28.4531 56.984 28.0561 56.7604 27.4632L55.6911 27.9156C56.1029 28.9316 57.0814 29.5923 58.1643 29.5857C59.601 29.5857 60.7884 28.7274 60.7884 26.6381V21.6012H59.66V22.067ZM58.2535 25.9795L58.2555 25.9797H58.2489L58.2535 25.9795ZM59.3589 25.446C59.0774 25.7691 58.6781 25.9617 58.2535 25.9795C57.3773 25.9002 56.7056 25.1555 56.7056 24.2631C56.7056 23.3699 57.3783 22.6248 58.2555 22.5464C58.6794 22.5684 59.0765 22.7631 59.3569 23.0863C59.6372 23.4095 59.7771 23.8338 59.7447 24.2631C59.7808 24.6943 59.6414 25.1217 59.3589 25.446ZM74.2493 18.6043H71.3169V26.9215H72.5437V23.7677H74.2559C75.2089 23.8371 76.1203 23.3608 76.6176 22.5334C77.115 21.7059 77.115 20.666 76.6176 19.8386C76.1203 19.0112 75.2089 18.5349 74.2559 18.6043H74.2493ZM72.5376 22.6001H74.2498L74.2761 22.6201C75.0532 22.6201 75.6832 21.9811 75.6832 21.1929C75.6832 20.4046 75.0532 19.7656 74.2761 19.7656H72.5376V22.6001ZM81.8136 21.4019C80.9009 21.3465 80.0428 21.8457 79.629 22.6727L80.718 23.1319C80.9374 22.7218 81.3748 22.4817 81.8333 22.5197C82.1479 22.4824 82.464 22.5749 82.7107 22.7763C82.9574 22.9778 83.114 23.2713 83.1453 23.591V23.6775C82.7513 23.4659 82.3119 23.3562 81.8661 23.3581C80.6918 23.3581 79.5044 24.0235 79.5044 25.2278C79.5278 25.7466 79.7571 26.2337 80.1402 26.5784C80.5232 26.923 81.0274 27.0959 81.5381 27.0576C82.1673 27.1034 82.7711 26.7972 83.1125 26.2591H83.1519V26.9245H84.3327V23.724C84.3327 22.2669 83.2437 21.4218 81.8464 21.4218L81.8136 21.4019ZM80.7046 25.2528C80.7046 25.7518 81.2622 25.9581 81.6624 25.9581L81.6952 25.9781C82.4342 25.9598 83.047 25.3921 83.1319 24.6473C82.7915 24.4546 82.4063 24.3581 82.0166 24.3679C81.4 24.3679 80.7046 24.5874 80.7046 25.2528ZM88.636 21.5977L87.2321 25.204H87.1927L85.7364 21.5977H84.4243L86.6089 26.6412L85.3624 29.4424H86.6417L90.0005 21.5977H88.636ZM78.8352 26.9227H77.6084V18.6055H78.8352V26.9227Z" fill="white"/>
<path fill-rule="evenodd" clip-rule="evenodd" d="M52.8627 12.129C52.0887 12.9599 52.0887 14.259 52.8627 15.0899C53.6611 15.8952 54.9508 15.8952 55.7492 15.0899C56.5264 14.2604 56.5264 12.9586 55.7492 12.129C55.3674 11.7389 54.8478 11.5195 54.3059 11.5195C53.764 11.5195 53.2445 11.7389 52.8627 12.129ZM38.0756 15.1037C38.4123 14.7471 38.5902 14.2661 38.5676 13.7729C38.5677 13.6725 38.5589 13.5723 38.5414 13.4735H36.6324V13.9526H38.0559C38.0462 14.2543 37.9298 14.5424 37.7279 14.7643C37.2783 15.2052 36.6113 15.3283 36.0373 15.0765C35.4633 14.8248 35.0951 14.2474 35.1039 13.6132C35.0896 13.1935 35.2445 12.786 35.5329 12.4847C35.8213 12.1834 36.2183 12.0143 36.6324 12.0163C37.0443 11.9935 37.4428 12.1685 37.7083 12.4887L38.0559 12.1361C37.888 11.9402 37.6767 11.7874 37.4393 11.6903C37.1843 11.5796 36.9097 11.523 36.6324 11.5239C36.0883 11.5116 35.5634 11.7284 35.1826 12.1228C34.5964 12.7212 34.4211 13.6176 34.7376 14.3976C35.0541 15.1777 35.8008 15.6892 36.6324 15.6958C37.1746 15.7154 37.6994 15.5001 38.0756 15.1037ZM39.8012 12.1096H41.5724V11.6172H39.2764V15.6094H41.5724V15.1171H39.8012V13.8529H41.415V13.3738H39.8012V12.1096ZM43.724 15.6094H43.2188V12.1096H42.1167V11.6172H44.8523V12.1096H43.724V15.6094ZM46.7812 11.6172V15.6094H47.2864V11.6172H46.7812ZM49.5301 15.6094H49.025V12.1096H47.9229V11.6172H50.6257V12.1096H49.5301V15.6094ZM53.2363 14.7602C53.8276 15.3575 54.7837 15.3575 55.3749 14.7602C55.9556 14.111 55.9556 13.1206 55.3749 12.4714C54.7837 11.8741 53.8276 11.8741 53.2363 12.4714C52.6556 13.1206 52.6556 14.111 53.2363 14.7602ZM57.0415 11.6172V15.6094H57.5532V12.3558L59.5541 15.6094H60.0789V11.6172H59.5737V14.7245L57.6582 11.6172H57.0415Z" fill="white"/>
<path d="M14.308 11.9763C14.0942 12.2365 13.9863 12.5696 14.0063 12.9078V27.6259C13.9863 27.9641 14.0942 28.2972 14.308 28.5574L14.3539 28.604L22.482 20.3667V20.1737L14.3539 11.9297L14.308 11.9763Z" fill="url(#paint0_linear_4_15)"/>
<path d="M25.1702 23.1136L22.4805 20.3656V20.1726L25.1702 17.418L25.2292 17.4512L28.4503 19.3076C29.3687 19.8333 29.3687 20.6983 28.4503 21.2306L25.2423 23.0803L25.1702 23.1136Z" fill="url(#paint1_linear_4_15)"/>
<path d="M25.251 23.0774L22.4826 20.2695L14.3086 28.5601C14.6948 28.9045 15.268 28.9212 15.6731 28.6L25.2576 23.0774" fill="url(#paint2_linear_4_15)"/>
<path d="M25.2498 17.4597L15.6653 11.9371C15.2602 11.6159 14.687 11.6327 14.3008 11.977L22.4814 20.2676L25.2498 17.4597Z" fill="url(#paint3_linear_4_15)"/>
<path opacity="0.2" d="M25.1723 23.0156L15.6666 28.505C15.2776 28.8 14.7435 28.8 14.3545 28.505L14.3086 28.5516L14.3545 28.5981C14.7428 28.8953 15.2783 28.8953 15.6666 28.5981L25.251 23.0755L25.1723 23.0156Z" fill="black"/>
<path opacity="0.12" fill-rule="evenodd" clip-rule="evenodd" d="M25.1718 23.0175L28.4519 21.1345C28.7908 20.9648 29.0331 20.6454 29.1079 20.2695C29.0741 20.685 28.8239 21.0504 28.4519 21.2277L25.2308 23.0774L25.1718 23.0175ZM14.0048 27.6637C14.0157 27.9565 14.1216 28.2388 14.308 28.4657L14.3539 28.5189L14.308 28.5655C14.1005 28.3129 13.9927 27.9916 14.0048 27.6637ZM14.0048 27.6637C14.0052 27.6538 14.0057 27.6439 14.0063 27.634V27.5342C14.0037 27.5775 14.0032 27.6207 14.0048 27.6637Z" fill="black"/>
<path opacity="0.25" d="M15.6663 12.0302L28.4521 19.4026C28.7911 19.5723 29.0334 19.8917 29.1082 20.2676C29.0744 19.8521 28.8241 19.4867 28.4521 19.3094L15.6663 11.937C14.7479 11.4114 14 11.8505 14 12.9151V13.015C14.0197 11.9437 14.7544 11.5045 15.6663 12.0302Z" fill="white"/>
</g>
<defs>
<linearGradient id="paint0_linear_4_15" x1="18.922" y1="1.92977" x2="5.88284" y2="5.34879" gradientUnits="userSpaceOnUse">
<stop stop-color="#00A0FF"/>
<stop offset="0.01" stop-color="#00A1FF"/>
<stop offset="0.26" stop-color="#00BEFF"/>
<stop offset="0.51" stop-color="#00D2FF"/>
<stop offset="0.76" stop-color="#00DFFF"/>
<stop offset="1" stop-color="#00E3FF"/>
</linearGradient>
<linearGradient id="paint1_linear_4_15" x1="29.6508" y1="13.4787" x2="13.7816" y2="13.4787" gradientUnits="userSpaceOnUse">
<stop stop-color="#FFE000"/>
<stop offset="0.41" stop-color="#FFBD00"/>
<stop offset="0.78" stop-color="#FFA500"/>
<stop offset="1" stop-color="#FF9C00"/>
</linearGradient>
<linearGradient id="paint2_linear_4_15" x1="14.0684" y1="15.9629" x2="3.39354" y2="33.6666" gradientUnits="userSpaceOnUse">
<stop stop-color="#FF3A44"/>
<stop offset="1" stop-color="#C31162"/>
</linearGradient>
<linearGradient id="paint3_linear_4_15" x1="7.92427" y1="9.68547" x2="12.6891" y2="17.5911" gradientUnits="userSpaceOnUse">
<stop stop-color="#32A071"/>
<stop offset="0.07" stop-color="#2DA771"/>
<stop offset="0.48" stop-color="#15CF74"/>
<stop offset="0.8" stop-color="#06E775"/>
<stop offset="1" stop-color="#00F076"/>
</linearGradient>
<clipPath id="clip0_4_15">
<rect width="375" height="2717" fill="white" transform="translate(-197 -2570)"/>
</clipPath>
</defs>
</svg>
